<svg width="17" height="17" viewBox="0 0 17 17" fill="none" xmlns="http://www.w3.org/2000/svg">
<path d="M16.689 5.53418C16.689 4.88477 16.5938 4.27686 16.4033 3.71045C16.208 3.14404 15.937 2.646 15.5903 2.21631C15.2437 1.78174 14.8384 1.44238 14.3745 1.19824C13.9058 0.949219 13.3979 0.824707 12.8511 0.824707H10.5C10.0166 0.585449 9.4917 0.399902 8.92529 0.268066C8.35889 0.131348 7.76318 0.0629883 7.13818 0.0629883H6.12744C5.65381 0.0629883 5.22168 0.0776367 4.83105 0.106934C4.44043 0.13623 4.11328 0.185059 3.84961 0.253418C3.30273 0.385254 2.86816 0.636719 2.5459 1.00781C2.21875 1.37891 2.05518 1.80615 2.05518 2.28955C2.05518 2.36768 2.0625 2.44336 2.07715 2.5166C2.08691 2.58984 2.10156 2.66309 2.12109 2.73633C1.61328 3.15137 1.35938 3.68359 1.35938 4.33301C1.35938 4.61621 1.4082 4.875 1.50586 5.10937C1.33984 5.29492 1.21533 5.50732 1.13232 5.74658C1.04443 5.99072 1.00049 6.24707 1.00049 6.51562C1.00049 6.68652 1.02002 6.85498 1.05908 7.021C1.09326 7.18701 1.14453 7.33838 1.21289 7.4751C1.00781 7.80713 0.905273 8.20508 0.905273 8.66895C0.905273 9.06445 0.998047 9.4209 1.18359 9.73828C1.36426 10.0557 1.61084 10.3071 1.92334 10.4927C2.23584 10.6782 2.58984 10.771 2.98535 10.771H5.60742C5.6709 10.771 5.72461 10.7856 5.76855 10.8149C5.80762 10.8442 5.82471 10.8906 5.81982 10.9541C5.80029 11.1299 5.73193 11.3618 5.61475 11.6499C5.49268 11.9429 5.35596 12.2676 5.20459 12.624C5.05322 12.9854 4.92139 13.3564 4.80908 13.7373C4.69189 14.1182 4.6333 14.4893 4.6333 14.8506C4.6333 15.2314 4.71631 15.5659 4.88232 15.854C5.04346 16.147 5.26562 16.3765 5.54883 16.5425C5.83203 16.7134 6.15674 16.7988 6.52295 16.7988C6.91357 16.7988 7.25537 16.689 7.54834 16.4692C7.84131 16.2495 8.11475 15.8979 8.36865 15.4146C8.59326 14.9849 8.83252 14.5601 9.08643 14.1401C9.34033 13.7251 9.61377 13.3101 9.90674 12.895C10.1948 12.48 10.5049 12.0552 10.8369 11.6206C11.1641 11.1909 11.5181 10.7417 11.8989 10.2729H13.1221C13.8057 10.2729 14.4185 10.0605 14.9604 9.63574C15.4976 9.21094 15.9199 8.63965 16.2275 7.92188C16.5352 7.20898 16.689 6.41309 16.689 5.53418ZM12.0308 5.6001C12.0308 6.10303 11.9917 6.55469 11.9136 6.95508C11.8306 7.36035 11.6938 7.75342 11.5034 8.13428C11.313 8.51514 11.0566 8.92041 10.7344 9.3501C10.373 9.83838 9.97754 10.3584 9.54785 10.9102C9.11328 11.4619 8.68115 12.0527 8.25146 12.6826C7.81689 13.3174 7.42139 13.9961 7.06494 14.7187C6.9624 14.9189 6.87207 15.0508 6.79395 15.1143C6.71582 15.1777 6.62549 15.2095 6.52295 15.2095C6.40088 15.2095 6.30322 15.1655 6.22998 15.0776C6.15674 14.9946 6.12012 14.8774 6.12012 14.7261C6.12012 14.4819 6.18115 14.1938 6.30322 13.8618C6.42529 13.5298 6.56689 13.1831 6.72803 12.8218C6.88428 12.4604 7.02344 12.1016 7.14551 11.7451C7.2627 11.3936 7.32129 11.0688 7.32129 10.771C7.32129 10.3218 7.1626 9.96045 6.84521 9.68701C6.52295 9.41846 6.11523 9.28418 5.62207 9.28418H3.03662C2.85596 9.28418 2.70215 9.2207 2.5752 9.09375C2.44824 8.97168 2.38477 8.81787 2.38477 8.63232C2.38477 8.50049 2.40918 8.3833 2.45801 8.28076C2.50684 8.18311 2.58496 8.07812 2.69238 7.96582C2.80957 7.85352 2.87549 7.71924 2.89014 7.56299C2.8999 7.40674 2.85352 7.2749 2.75098 7.16748C2.6582 7.03564 2.59229 6.9209 2.55322 6.82324C2.50928 6.73047 2.4873 6.62793 2.4873 6.51562C2.4873 6.38379 2.51904 6.26172 2.58252 6.14941C2.646 6.03711 2.74365 5.93213 2.87549 5.83447C3.01709 5.73193 3.10986 5.6001 3.15381 5.43896C3.19287 5.27783 3.17334 5.11426 3.09521 4.94824C3.02197 4.81641 2.96826 4.70654 2.93408 4.61865C2.8999 4.53564 2.88281 4.44531 2.88281 4.34766C2.88281 4.0498 3.08545 3.79346 3.49072 3.57861C3.62744 3.49561 3.71533 3.3833 3.75439 3.2417C3.79346 3.10498 3.78613 2.96826 3.73242 2.83154C3.66406 2.66553 3.62256 2.55322 3.60791 2.49463C3.58838 2.43604 3.57861 2.37012 3.57861 2.29687C3.57861 2.16016 3.63232 2.04053 3.73975 1.93799C3.84229 1.83057 4.00586 1.74756 4.23047 1.68896C4.43555 1.64014 4.70898 1.60352 5.05078 1.5791C5.3877 1.55469 5.78809 1.54248 6.25195 1.54248L7.07227 1.5498C8.06348 1.5498 8.93262 1.72314 9.67969 2.06982C10.4219 2.4165 11.0005 2.89258 11.4155 3.49805C11.8257 4.1084 12.0308 4.80908 12.0308 5.6001ZM15.2388 5.53418C15.2388 6.12988 15.1509 6.66943 14.9751 7.15283C14.7993 7.63623 14.5649 8.02686 14.272 8.32471C13.979 8.62256 13.6567 8.78369 13.3052 8.80811C13.2271 8.80811 13.1489 8.80811 13.0708 8.80811C12.9878 8.81299 12.9048 8.81543 12.8218 8.81543C13.061 8.32227 13.2393 7.81445 13.3564 7.29199C13.4688 6.77441 13.5249 6.20801 13.5249 5.59277C13.5249 4.94824 13.4199 4.34277 13.21 3.77637C12.9951 3.20996 12.6875 2.69727 12.2871 2.23828C12.3994 2.23828 12.5142 2.23828 12.6313 2.23828C12.7485 2.23828 12.8633 2.23828 12.9756 2.23828C13.3906 2.26758 13.769 2.43115 14.1108 2.729C14.4526 3.02686 14.7261 3.41992 14.9312 3.9082C15.1362 4.39648 15.2388 4.93848 15.2388 5.53418Z" fill="white" fill-opacity="0.6"/>
</svg>
